<svg width="533" height="247" viewBox="0 0 533 247" fill="none" xmlns="http://www.w3.org/2000/svg">
<path d="M452.081 237.805C444.357 240.075 435.761 242.338 427.309 243.669C419.288 244.666 410.435 246.459 401.9 246.338C393.364 246.216 385.141 244.151 378.383 237.435C371.457 229.238 373.179 218.058 381.639 210.347C415.477 195.221 450.425 179.701 488.115 179.298C496.078 179.212 504.091 180.911 511.191 184.594C524.055 191.287 532.766 204.164 532.999 218.776C533.167 246.467 503.077 250.094 476.39 245.107C467.497 243.444 458.984 240.816 452.127 237.795C452.117 237.79 452.104 237.793 452.081 237.805Z" fill="#4761FF"/>
<path d="M19.4338 130.188C14.4135 119.316 -16.7637 51.8023 13.2241 18.2425C40.5412 -12.3322 104.536 1.02748 141.504 18.3859C198.977 45.3576 198.357 85.3449 237.525 89.1413C286.13 93.8552 308.377 34.3492 359.978 42.4795C380.724 45.7477 407.31 60.1088 410.605 79.1953C420.786 138.208 213.794 274.043 92.207 209.67C45.4057 184.869 22.2056 136.189 19.4338 130.188Z" fill="#5970FF"/>
</svg>
